# xmcd
#
# Track frame offsets: 
#        150
#        26590
#        43625
#        55892
#        72266
#        92870
#        123422
#        151323
#        173389
#        190065
#
# Disc length: 2709 seconds
#
# Revision: 0
# Processed by: cddbd v1.5.1PL0 Copyright (c) Steve Scherf et al.
# Submitted via: ExactAudioCopy v0.95a4
#
DISCID=7b0a930a
DTITLE=Van Morrison - Tivoli Concert Hall
DYEAR=2004
DGENRE=Celtic
TTITLE0=Inarticulate Speech Of The Heart > No Prima Donna
TTITLE1=Whining Boy Moan
TTITLE2=What's Wrong With This Picture ?
TTITLE3=Once In A Blue Moon
TTITLE4=In The Midnight
TTITLE5=I Like It Like That > Kansas City
TTITLE6=Philosophers Stone
TTITLE7=Back On Top
TTITLE8=Sometimes We Cry
TTITLE9=Walking My Baby Back Home
EXTD=
EXTT0=
EXTT1=
EXTT2=
EXTT3=
EXTT4=
EXTT5=
EXTT6=
EXTT7=
EXTT8=
EXTT9=
PLAYORDER=
